<?xml version="1.0" encoding="UTF-8" ?>
<svg class="signature" viewBox="0 0 198 162" xmlns="http://www.w3.org/2000/svg">
  <defs>
    <filter id="a" x="-50%" y="-50%" width="200%" height="200%">
      <feGaussianBlur in="SourceGraphic" />
    </filter>
  </defs>
  <g>
    <title>Background</title>
    <rect x="-1" y="-1" width="200" height="164" fill="none" />
    <g x="0" y="0" display="none" overflow="visible">
      <rect width="100%" height="100%" fill="url(#gridpattern)" stroke-width="0" />
    </g>
  </g>
  <g>
    <title>Layer 1</title>
    <path class="main-stroke" d="m33.136 23.118s0.081565-3.1786 3.838-7.6128c4.6125-5.4447 10.595-8.6044 15.352-10.381 4.4852-1.675 8.4733-1.7167 10.746-1.3841 2.396 0.35057 5.9176 2.5191 8.4436 7.6128 2.9723 5.9937 4.9873 10.288 6.1408 27.683 1.0078 15.198-3.2906 33.151-8.4436 47.061-5.6143 15.155-12.251 31.49-19.958 44.985-4.8814 8.5481-11.309 16.079-15.352 20.07-4.3922 4.3363-8.9857 6.4894-13.817 6.9207-6.1585 0.54981-11.875-3.3049-14.584-10.381-3.2657-8.5296-2.2911-28.593 8.4436-47.753 12.768-22.789 30.353-40.484 44.521-51.905 9.7447-7.8554 22.008-15.292 28.401-16.61 8.2652-1.7033 12.716-0.23571 15.352 4.1524 2.7844 4.6344 4.2209 10.344 4.6056 15.226 0.27205 3.4516-0.40356 6.332 0 6.9207 0.90239 1.3164 7.9803-0.39165 24.563-15.918 9.0671-8.4893 12.709-14.101 15.352-16.61 4.1292-3.9188 5.7567-0.021586 6.1408 8.3049 0.28709 6.2233 1.4182 12.978 3.838 13.149 4.6549 0.3293 9.2112-4.1524 12.282-6.9207 1.5352-1.3841 1.7942-1.1696 3.0704 0.69206 1.1414 1.6651 4.6056 1.3841 8.4436-1.3841l6.9084-4.1524 5.3732-2.0762 1.5352-0.69206" fill="none" fill-opacity="null" filter="url(#a)" stroke="#fff" stroke-opacity="null" stroke-width="4.5" />
  </g>
</svg>
