<?xml version="1.0" standalone="no"?>
<!DOCTYPE svg PUBLIC "-//W3C//DTD SVG 20010904//EN"
 "http://www.w3.org/TR/2001/REC-SVG-20010904/DTD/svg10.dtd">
<svg version="1.0" xmlns="http://www.w3.org/2000/svg"
 width="500.000000pt" height="500.000000pt" viewBox="0 0 500.000000 500.000000"
 preserveAspectRatio="xMidYMid meet">
<metadata>
Created by potrace 1.11, written by Peter Selinger 2001-2013
</metadata>
<g transform="translate(0.000000,500.000000) scale(0.100000,-0.100000)"
fill="#000000" stroke="none">
<path d="M1605 4381 c-161 -72 -204 -265 -86 -389 59 -62 94 -77 182 -77 68 0
80 4 127 34 110 71 152 204 97 311 -20 39 -77 96 -117 116 -47 25 -154 27
-203 5z"/>
<path d="M3600 3734 c-158 -34 -286 -107 -392 -225 l-63 -69 0 83 c-1 150 -35
171 -230 142 -43 -7 -146 -7 -175 0 -14 3 -72 8 -130 10 -118 5 -174 -11 -205
-59 -43 -65 -24 -169 36 -205 34 -21 67 -22 229 -6 73 7 77 6 108 -20 31 -26
53 -79 66 -160 6 -36 16 -601 17 -965 1 -382 -9 -459 -62 -513 -27 -27 -34
-29 -82 -23 -29 3 -68 10 -87 16 -52 16 -146 9 -190 -12 -45 -22 -63 -59 -62
-123 1 -55 24 -96 66 -121 25 -15 49 -19 121 -18 96 1 286 14 296 20 10 6 321
5 349 -1 115 -23 352 -27 394 -5 45 23 69 63 71 118 6 121 -74 175 -210 142
-81 -20 -142 -22 -173 -6 -31 16 -67 77 -76 131 -3 17 -9 41 -12 55 -17 70 -9
905 10 1025 3 17 8 48 12 70 3 22 17 74 30 115 51 162 149 268 294 316 77 26
254 26 329 1 88 -30 172 -94 205 -157 29 -54 35 -134 16 -185 -8 -22 -14 -24
-49 -19 -56 8 -104 -10 -145 -56 -87 -96 -60 -226 62 -297 42 -25 57 -28 132
-28 65 1 96 6 130 22 99 45 163 129 200 258 22 78 20 230 -4 319 -56 202 -214
352 -438 417 -94 27 -293 34 -388 13z"/>
<path d="M1183 3661 c-51 -24 -76 -68 -76 -132 1 -58 25 -104 64 -125 34 -17
78 -16 216 7 74 12 86 11 117 -4 45 -21 64 -59 73 -144 10 -83 9 -1838 0
-1943 -8 -93 -40 -210 -75 -273 -101 -186 -410 -247 -592 -117 -26 18 -28 23
-16 35 41 41 61 91 61 150 0 72 -23 117 -80 157 -108 76 -260 30 -315 -95 -81
-182 25 -403 244 -511 98 -48 172 -66 306 -73 411 -20 710 210 787 607 2 14 7
41 10 60 3 19 7 325 9 680 3 568 11 1103 19 1270 16 339 16 365 1 401 -24 57
-68 73 -175 63 -98 -10 -241 -10 -416 -1 -105 6 -125 4 -162 -12z"/>
</g>
</svg>
